PathFileType	4	(X/Y/Z)	SUBJ51_0_static_RCNL2025.trc
DataRate	CameraRate	NumFrames	NumMarkers	Units	OrigDataRate	OrigDataStartFrame	OrigNumFrames
100	100	9	25	mm	100	47	93
Frame#	Time	R_Shoulder			L_Shoulder			C7			J_Notch			R_Elbow			L_Elbow			R_Wrist			L_Wrist			R_Asis			L_Asis			Sacral			Thoracic			Sternum			R_Thigh_Lateral			R_Knee_Lateral			R_Shank_Lateral			R_Ankle_Lateral			R_Heel			R_Toe			L_Thigh_Lateral			L_Knee_Lateral			L_Shank_Lateral			L_Ankle_Lateral			L_Heel			L_Toe		
		X1	Y1	Z1	X2	Y2	Z2	X3	Y3	Z3	X4	Y4	Z4	X5	Y5	Z5	X6	Y6	Z6	X7	Y7	Z7	X8	Y8	Z8	X9	Y9	Z9	X10	Y10	Z10	X11	Y11	Z11	X12	Y12	Z12	X13	Y13	Z13	X14	Y14	Z14	X15	Y15	Z15	X16	Y16	Z16	X17	Y17	Z17	X18	Y18	Z18	X19	Y19	Z19	X20	Y20	Z20	X21	Y21	Z21	X22	Y22	Z22	X23	Y23	Z23	X24	Y24	Z24	X25	Y25	Z25
47	0.46000000	-205.440262	1505.599487	-34.009315	-218.196640	1517.170532	-481.759338	-300.474701	1610.937378	-267.671600	-147.757874	1508.055176	-265.548309	-250.154694	1232.547852	108.991013	-245.928360	1237.481812	-635.105713	-180.910301	972.329956	113.869030	-201.810074	982.721375	-666.449677	-137.591827	1053.008545	-129.914886	-139.889389	1035.070679	-370.275574	-355.667572	1084.003906	-255.228668	-384.756805	1392.436035	-261.837921	-89.390999	1278.142822	-269.677673	-209.730316	653.059937	-41.863899	-242.201370	529.610413	-89.073357	-294.303375	320.508850	-18.373558	-332.201569	81.568977	-128.714691	-383.284698	73.953506	-184.779724	-174.982513	48.191502	-150.695068	-238.995483	646.862793	-469.414612	-265.850006	529.043396	-421.011230	-312.476959	343.308044	-460.671722	-331.762146	74.011864	-354.164581	-379.404236	80.873680	-294.802734	-173.540527	45.643940	-342.779633
48	0.47000000	-205.327164	1505.644653	-34.085808	-218.186539	1517.105225	-481.764191	-300.398773	1610.960571	-267.729370	-147.644684	1508.025879	-265.634308	-250.089493	1232.593384	108.923973	-245.856522	1237.377930	-635.056030	-180.881386	972.387604	113.952415	-201.704994	982.636292	-666.321716	-137.493073	1053.007568	-129.961945	-139.743515	1035.082642	-370.227722	-355.524933	1083.973145	-255.207870	-384.695251	1392.396362	-261.785065	-89.263237	1278.209595	-269.752869	-209.672531	653.032349	-41.832748	-242.127960	529.554260	-89.113045	-294.315613	320.518188	-18.341967	-332.286438	81.071297	-128.839890	-383.284882	73.960732	-184.782242	-175.072891	48.182285	-150.744202	-238.992477	646.818909	-469.328796	-265.813080	529.093689	-420.925446	-312.480499	343.347229	-460.644440	-331.769989	74.009941	-354.152435	-379.342987	80.867371	-294.827911	-173.539383	45.644077	-342.780121
49	0.48000000	-205.292099	1505.656372	-34.132473	-218.185150	1517.031982	-481.799561	-300.394226	1610.956543	-267.747040	-147.642990	1508.033813	-265.671661	-249.945312	1232.652344	108.949730	-245.843369	1237.212524	-634.987915	-180.751305	972.467133	114.061569	-201.577316	982.450867	-666.172516	-137.430084	1053.002197	-129.860794	-139.762589	1035.000244	-370.269531	-355.514771	1083.977539	-255.201935	-384.677704	1392.438965	-261.873535	-89.125298	1278.231689	-269.698395	-209.536774	653.070679	-41.923916	-242.030777	529.561401	-89.168434	-294.278381	320.571777	-18.344597	-332.261108	81.002174	-128.842911	-383.284210	73.957779	-184.782089	-174.949951	48.273273	-150.790176	-238.860321	646.881226	-469.404022	-265.759766	529.110657	-420.913666	-312.425659	343.325409	-460.669708	-331.794647	74.001244	-354.149017	-379.313171	80.920181	-294.854248	-173.545670	45.627853	-342.795502
50	0.49000000	-205.284790	1505.762207	-34.119461	-218.178513	1516.980713	-481.851685	-300.296814	1610.993652	-267.813782	-147.602478	1507.968628	-265.759918	-249.925064	1232.747192	108.958092	-245.774033	1237.090942	-634.840881	-180.614136	972.522034	114.129837	-201.479469	982.315460	-665.990723	-137.347595	1053.034058	-129.929199	-139.577667	1035.042725	-370.252289	-355.313293	1083.912231	-255.281128	-384.601410	1392.418335	-261.843414	-89.129112	1278.229858	-269.688782	-209.404800	653.034363	-41.946075	-242.006943	529.592834	-89.155876	-294.239227	320.567291	-18.403765	-332.264374	80.995483	-128.850525	-383.286652	73.942841	-184.779434	-174.929901	48.279140	-150.792633	-238.804764	646.807068	-469.373016	-265.633301	529.084839	-420.946350	-312.317322	343.367950	-460.641907	-331.776917	74.011772	-354.143372	-379.280884	80.896629	-294.880524	-173.516022	45.647240	-342.767487
51	0.50000000	-205.210297	1505.749756	-34.195133	-218.105240	1516.987793	-481.936249	-300.143219	1610.972168	-267.805389	-147.613007	1507.910645	-265.740112	-249.870712	1232.799072	109.014679	-245.705688	1236.987427	-634.776489	-180.546356	972.581116	114.242878	-201.355682	982.195251	-665.815155	-137.233994	1053.002563	-129.915161	-139.445847	1034.992065	-370.185333	-355.241974	1083.958740	-255.303253	-384.520935	1392.417603	-261.879852	-88.952141	1278.231934	-269.744781	-209.407959	653.065735	-41.924770	-241.977692	529.544189	-89.203606	-294.231293	320.520935	-18.423702	-332.219849	81.525818	-128.704620	-383.286377	73.941620	-184.779404	-175.026611	48.201122	-150.736832	-238.712738	646.856934	-469.353333	-265.558197	529.063965	-420.960022	-312.279846	343.297882	-460.692078	-331.781281	74.000229	-354.137848	-379.300323	80.961807	-294.864441	-173.534073	45.662235	-342.711395
52	0.51000000	-205.197815	1505.737915	-34.207027	-218.081757	1516.873291	-481.991821	-300.045929	1610.962769	-267.873108	-147.549545	1507.893433	-265.817230	-249.762619	1232.906128	109.068504	-245.718826	1236.867798	-634.799438	-180.405251	972.623718	114.329311	-201.263512	982.024658	-665.568207	-137.171295	1052.964233	-130.028946	-139.374893	1034.972412	-370.244171	-355.153503	1083.901489	-255.270294	-384.380005	1392.406006	-261.863281	-88.808449	1278.226929	-269.713409	-209.349655	653.034302	-41.843586	-241.828506	529.461853	-89.193512	-294.231903	320.458527	-18.447140	-332.298645	81.071358	-128.822693	-383.283661	73.956429	-184.782089	-174.973923	48.173172	-150.705933	-238.587357	646.820801	-469.394531	-265.417877	529.052551	-420.935272	-312.196838	343.267395	-460.609589	-331.770874	73.999039	-354.156616	-379.307190	80.969704	-294.861816	-173.538025	45.636269	-342.773346
53	0.52000000	-205.081589	1505.798462	-34.304420	-218.015747	1516.842407	-482.040741	-299.959656	1610.944458	-267.945190	-147.447647	1507.888794	-265.756866	-249.611160	1232.960571	109.086510	-245.703583	1236.728882	-634.674988	-180.342789	972.693848	114.406261	-201.127968	981.892365	-665.359558	-137.065475	1053.023438	-130.090958	-139.258606	1034.995483	-370.219818	-355.081879	1083.928833	-255.279968	-384.338379	1392.340332	-261.911163	-88.887535	1278.147339	-269.522522	-209.221710	652.987671	-41.862888	-241.845657	529.542969	-89.095894	-294.226013	320.517029	-18.405787	-332.279358	80.980080	-128.873642	-383.284058	73.957848	-184.782104	-174.963135	48.171867	-150.706329	-238.534012	646.843750	-469.382019	-265.388489	529.013855	-420.940369	-312.167511	343.248077	-460.633728	-331.773987	74.011719	-354.144958	-379.274750	80.916771	-294.902435	-173.507736	45.662918	-342.741028
54	0.53000000	-205.003876	1505.780273	-34.323750	-217.928665	1516.787109	-482.052765	-299.838257	1610.891602	-268.056763	-147.378174	1507.832642	-265.852966	-249.513489	1233.019043	109.035057	-245.638168	1236.583130	-634.597595	-180.212891	972.784668	114.473404	-201.027092	981.747101	-665.087463	-137.117813	1053.020996	-129.911804	-139.132248	1034.983643	-370.154053	-354.985657	1083.872437	-255.265640	-384.247162	1392.336670	-261.990417	-88.657372	1278.210571	-269.717957	-209.057266	653.065857	-41.886200	-241.867126	529.568298	-89.088478	-294.176208	320.533447	-18.451275	-332.268402	81.027519	-128.863876	-383.283997	73.957336	-184.782059	-174.963654	48.173794	-150.708694	-238.500717	646.793579	-469.298889	-265.346832	529.019775	-420.934998	-312.121582	343.291168	-460.679016	-331.776337	74.014496	-354.157501	-379.295441	80.972549	-294.870026	-173.501556	45.624207	-342.732422
55	0.54000000	-204.834030	1505.823120	-34.372795	-217.894928	1516.750854	-482.074219	-299.715363	1610.999512	-268.023956	-147.305115	1507.815918	-265.963715	-249.306854	1233.103516	109.078339	-245.555618	1236.524292	-634.496033	-180.113373	972.855957	114.559631	-200.974274	981.605988	-664.824188	-137.035522	1053.052368	-129.878433	-139.128113	1034.991089	-370.149872	-354.827728	1083.926392	-255.263885	-384.236267	1392.400513	-261.996033	-88.680008	1278.152100	-269.565704	-209.032608	653.038330	-41.870270	-241.792282	529.542664	-89.026215	-294.207336	320.603943	-18.347811	-332.142517	81.641815	-128.740387	-383.242462	73.991806	-184.837891	-174.919144	48.248783	-150.720901	-238.365494	646.857605	-469.348419	-265.288055	529.072571	-420.873993	-312.052216	343.381561	-460.674652	-331.734070	74.063637	-354.192596	-379.255493	80.996605	-294.938385	-173.495361	45.623325	-342.757111
